<mxfile host="app.diagrams.net" modified="2024-08-19T06:35:53.230Z" agent="Mozilla/5.0 (Windows NT 10.0; Win64; x64) AppleWebKit/537.36 (KHTML, like Gecko) Chrome/127.0.0.0 Safari/537.36" version="24.7.1" etag="TD8jhG88jm2wKCVPDpHl" type="github">
  <diagram name="Page-1" id="4w5oLx8Uo6YVMak_XxQK">
    <mxGraphModel>
      <root>
        <mxCell id="0" />
        <mxCell id="1" parent="0" />
      </root>
    </mxGraphModel>
  </diagram>
</mxfile>
